<?xml version="1.0" encoding="UTF-8" standalone="no"?>
<!DOCTYPE svg PUBLIC "-//W3C//DTD SVG 1.1//EN"
 "http://www.w3.org/Graphics/SVG/1.1/DTD/svg11.dtd">
<!-- Generated by graphviz version 12.1.0 (20240811.2233)
 -->
<!-- Pages: 1 -->
<svg width="1124pt" height="1204pt"
 viewBox="0.00 0.00 1124.00 1204.00" xmlns="http://www.w3.org/2000/svg" xmlns:xlink="http://www.w3.org/1999/xlink">
<g id="graph0" class="graph" transform="scale(1 1) rotate(0) translate(4 1200)">
<polygon fill="white" stroke="none" points="-4,4 -4,-1200 1120,-1200 1120,4 -4,4"/>
<g id="clust1" class="cluster">
<title>cluster_import</title>
<polygon fill="none" stroke="black" points="412,-464.5 412,-660 638,-660 638,-464.5 412,-464.5"/>
<text text-anchor="middle" x="525" y="-642.7" font-family="Times,serif" font-size="14.00">store::import</text>
</g>
<g id="clust2" class="cluster">
<title>cluster_fetch_layer</title>
<polygon fill="none" stroke="black" points="408,-679 408,-755.5 568,-755.5 568,-679 408,-679"/>
<text text-anchor="middle" x="488" y="-738.2" font-family="Times,serif" font-size="14.00">unencapsulate::fetch_layer</text>
</g>
<g id="clust3" class="cluster">
<title>cluster_get_blob</title>
<polygon fill="none" stroke="black" points="285,-774.5 285,-924 539,-924 539,-774.5 285,-774.5"/>
<text text-anchor="middle" x="412" y="-906.7" font-family="Times,serif" font-size="14.00">imageproxy::get_blob</text>
</g>
<g id="clust4" class="cluster">
<title>cluster_impl_request</title>
<polygon fill="none" stroke="black" points="352,-1111.5 352,-1188 512,-1188 512,-1111.5 352,-1111.5"/>
<text text-anchor="middle" x="432" y="-1170.7" font-family="Times,serif" font-size="14.00">imageproxy::impl_request</text>
</g>
<g id="clust5" class="cluster">
<title>cluster_finish_pipe</title>
<polygon fill="none" stroke="black" points="287,-943 287,-1092.5 436,-1092.5 436,-943 287,-943"/>
<text text-anchor="middle" x="361.5" y="-1075.2" font-family="Times,serif" font-size="14.00">imageproxy::finish_pipe</text>
</g>
<g id="clust6" class="cluster">
<title>cluster_write_tar</title>
<polygon fill="none" stroke="black" points="646,-81 646,-549 1104,-549 1104,-81 646,-81"/>
<text text-anchor="middle" x="875" y="-531.7" font-family="Times,serif" font-size="14.00">tar::write_tar</text>
</g>
<g id="clust7" class="cluster">
<title>cluster_write_tar_status_future</title>
<polygon fill="none" stroke="black" points="789,-242.5 789,-319 874,-319 874,-242.5 789,-242.5"/>
<text text-anchor="middle" x="831.5" y="-301.7" font-family="Times,serif" font-size="14.00">status Future</text>
</g>
<g id="clust8" class="cluster">
<title>cluster_write_tar_output_copier_future</title>
<polygon fill="none" stroke="black" points="840,-353.5 840,-430 1096,-430 1096,-353.5 840,-353.5"/>
<text text-anchor="middle" x="968" y="-412.7" font-family="Times,serif" font-size="14.00">output_copier Future</text>
</g>
<g id="clust9" class="cluster">
<title>cluster_filter_tar_async</title>
<polygon fill="none" stroke="black" points="8,-8 8,-430 638,-430 638,-8 8,-8"/>
<text text-anchor="middle" x="323" y="-412.7" font-family="Times,serif" font-size="14.00">tar::filter_tar_async</text>
</g>
<g id="clust10" class="cluster">
<title>cluster_tar_transformer</title>
<polygon fill="none" stroke="black" points="16,-81 16,-319 464,-319 464,-81 16,-81"/>
<text text-anchor="middle" x="240" y="-301.7" font-family="Times,serif" font-size="14.00">tar_transformer Future</text>
</g>
<g id="clust11" class="cluster">
<title>cluster_filter_tar_async_copier_future</title>
<polygon fill="none" stroke="black" points="472,-242.5 472,-319 630,-319 630,-242.5 472,-242.5"/>
<text text-anchor="middle" x="551" y="-301.7" font-family="Times,serif" font-size="14.00">copier Future</text>
</g>
<!-- import_blob -->
<g id="node1" class="node">
<title>import_blob</title>
<ellipse fill="none" stroke="black" cx="531" cy="-609.5" rx="27.3" ry="18"/>
<text text-anchor="middle" x="531" y="-604.45" font-family="Times,serif" font-size="14.00">blob</text>
</g>
<!-- write_tar_src -->
<g id="node13" class="node">
<title>write_tar_src</title>
<ellipse fill="none" stroke="black" cx="681" cy="-498.5" rx="27" ry="18"/>
<text text-anchor="middle" x="681" y="-493.45" font-family="Times,serif" font-size="14.00">src</text>
</g>
<!-- import_blob&#45;&gt;write_tar_src -->
<g id="edge12" class="edge">
<title>import_blob&#45;&gt;write_tar_src</title>
<path fill="none" stroke="black" d="M552.55,-597.91C557.27,-595.71 562.28,-593.46 567,-591.5 588.81,-582.45 596.99,-586.05 617,-573.5 636.54,-561.24 653.36,-541.16 664.85,-525.01"/>
<polygon fill="black" stroke="black" points="667.69,-527.05 670.43,-516.82 661.91,-523.11 667.69,-527.05"/>
</g>
<!-- import_driver -->
<g id="node2" class="node">
<title>import_driver</title>
<ellipse fill="none" stroke="black" cx="453" cy="-609.5" rx="32.93" ry="18"/>
<text text-anchor="middle" x="453" y="-604.45" font-family="Times,serif" font-size="14.00">driver</text>
</g>
<!-- import_r2 -->
<g id="node4" class="node">
<title>import_r2</title>
<polygon fill="none" stroke="black" points="492,-491.04 492,-505.96 476.18,-516.5 453.82,-516.5 438,-505.96 438,-491.04 453.82,-480.5 476.18,-480.5 492,-491.04"/>
<polygon fill="none" stroke="black" points="496,-488.9 496,-508.1 477.39,-520.5 452.61,-520.5 434,-508.1 434,-488.9 452.61,-476.5 477.39,-476.5 496,-488.9"/>
<polygon fill="none" stroke="black" points="500,-486.76 500,-510.24 478.61,-524.5 451.39,-524.5 430,-510.24 430,-486.76 451.39,-472.5 478.61,-472.5 500,-486.76"/>
<text text-anchor="middle" x="465" y="-493.45" font-family="Times,serif" font-size="14.00">r</text>
</g>
<!-- import_driver&#45;&gt;import_r2 -->
<g id="edge2" class="edge">
<title>import_driver&#45;&gt;import_r2</title>
<path fill="none" stroke="black" d="M454.88,-591.47C456.49,-576.76 458.89,-555 460.94,-536.34"/>
<polygon fill="black" stroke="black" points="464.42,-536.75 462.04,-526.42 457.46,-535.98 464.42,-536.75"/>
<text text-anchor="middle" x="486.02" y="-560.2" font-family="Times,serif" font-size="14.00">join_fetch</text>
</g>
<!-- import_r -->
<g id="node3" class="node">
<title>import_r</title>
<ellipse fill="none" stroke="black" cx="603" cy="-609.5" rx="27" ry="18"/>
<text text-anchor="middle" x="603" y="-604.45" font-family="Times,serif" font-size="14.00">r</text>
</g>
<!-- import_r&#45;&gt;import_r2 -->
<g id="edge1" class="edge">
<title>import_r&#45;&gt;import_r2</title>
<path fill="none" stroke="black" d="M586.08,-595.13C564.09,-577.77 525.24,-547.08 497.48,-525.15"/>
<polygon fill="black" stroke="black" points="499.73,-522.47 489.71,-519.02 495.39,-527.97 499.73,-522.47"/>
<text text-anchor="middle" x="585.74" y="-560.2" font-family="Times,serif" font-size="14.00">join_fetch</text>
</g>
<!-- fetch_layer_blob -->
<g id="node5" class="node">
<title>fetch_layer_blob</title>
<ellipse fill="none" stroke="black" cx="446" cy="-705" rx="27.3" ry="18"/>
<text text-anchor="middle" x="446" y="-699.95" font-family="Times,serif" font-size="14.00">blob</text>
</g>
<!-- fetch_layer_blob&#45;&gt;import_blob -->
<g id="edge3" class="edge">
<title>fetch_layer_blob&#45;&gt;import_blob</title>
<path fill="none" stroke="black" d="M462.69,-690.54C472.56,-682.21 485.04,-671.04 495,-660 501.78,-652.48 508.5,-643.71 514.26,-635.65"/>
<polygon fill="black" stroke="black" points="517.06,-637.76 519.9,-627.55 511.31,-633.76 517.06,-637.76"/>
</g>
<!-- fetch_layer_driver -->
<g id="node6" class="node">
<title>fetch_layer_driver</title>
<ellipse fill="none" stroke="black" cx="525" cy="-705" rx="32.93" ry="18"/>
<text text-anchor="middle" x="525" y="-699.95" font-family="Times,serif" font-size="14.00">driver</text>
</g>
<!-- fetch_layer_driver&#45;&gt;import_driver -->
<g id="edge4" class="edge">
<title>fetch_layer_driver&#45;&gt;import_driver</title>
<path fill="none" stroke="black" d="M512.79,-688.14C501.62,-673.63 484.91,-651.94 472,-635.17"/>
<polygon fill="black" stroke="black" points="475.07,-633.43 466.2,-627.64 469.53,-637.7 475.07,-633.43"/>
</g>
<!-- get_blob_fd -->
<g id="node7" class="node">
<title>get_blob_fd</title>
<ellipse fill="none" stroke="black" cx="456" cy="-873.5" rx="31.9" ry="18"/>
<text text-anchor="middle" x="456" y="-868.45" font-family="Times,serif" font-size="14.00">(_,fd)</text>
</g>
<!-- get_blob_fd2 -->
<g id="node8" class="node">
<title>get_blob_fd2</title>
<ellipse fill="none" stroke="black" cx="412" cy="-800.5" rx="119.42" ry="18"/>
<text text-anchor="middle" x="412" y="-795.45" font-family="Times,serif" font-size="14.00">tokio::File(tokio::BufReader)</text>
</g>
<!-- get_blob_fd&#45;&gt;get_blob_fd2 -->
<g id="edge7" class="edge">
<title>get_blob_fd&#45;&gt;get_blob_fd2</title>
<path fill="none" stroke="black" d="M445.79,-856.03C440.72,-847.85 434.47,-837.75 428.72,-828.48"/>
<polygon fill="black" stroke="black" points="431.8,-826.81 423.56,-820.16 425.85,-830.5 431.8,-826.81"/>
</g>
<!-- get_blob_fd2&#45;&gt;fetch_layer_blob -->
<g id="edge5" class="edge">
<title>get_blob_fd2&#45;&gt;fetch_layer_blob</title>
<path fill="none" stroke="black" d="M418.24,-782.35C423.2,-768.69 430.25,-749.3 436.01,-733.48"/>
<polygon fill="black" stroke="black" points="439.27,-734.74 439.4,-724.15 432.69,-732.35 439.27,-734.74"/>
</g>
<!-- get_blob_finish -->
<g id="node9" class="node">
<title>get_blob_finish</title>
<ellipse fill="none" stroke="black" cx="374" cy="-873.5" rx="31.9" ry="18"/>
<text text-anchor="middle" x="374" y="-868.45" font-family="Times,serif" font-size="14.00">finish</text>
</g>
<!-- get_blob_finish&#45;&gt;fetch_layer_driver -->
<g id="edge6" class="edge">
<title>get_blob_finish&#45;&gt;fetch_layer_driver</title>
<path fill="none" stroke="black" d="M398.55,-861.83C403.93,-859.63 409.63,-857.4 415,-855.5 469.61,-836.16 505.33,-864.92 540,-818.5 558.3,-793.99 548.89,-757.84 538.65,-733.18"/>
<polygon fill="black" stroke="black" points="541.88,-731.82 534.6,-724.12 535.49,-734.68 541.88,-731.82"/>
</g>
<!-- request_req -->
<g id="node10" class="node">
<title>request_req</title>
<ellipse fill="none" stroke="black" cx="432" cy="-1137.5" rx="27" ry="18"/>
<text text-anchor="middle" x="432" y="-1132.45" font-family="Times,serif" font-size="14.00">req</text>
</g>
<!-- request_req&#45;&gt;get_blob_fd -->
<g id="edge8" class="edge">
<title>request_req&#45;&gt;get_blob_fd</title>
<path fill="none" stroke="black" d="M435.54,-1119.43C437.11,-1111.31 438.86,-1101.43 440,-1092.5 448.59,-1024.98 453,-945.05 454.87,-903.25"/>
<polygon fill="black" stroke="black" points="458.36,-903.45 455.29,-893.31 451.37,-903.15 458.36,-903.45"/>
</g>
<!-- finish_pipe_r_fd -->
<g id="node11" class="node">
<title>finish_pipe_r_fd</title>
<ellipse fill="none" stroke="black" cx="385" cy="-1042" rx="29.86" ry="18"/>
<text text-anchor="middle" x="385" y="-1036.95" font-family="Times,serif" font-size="14.00">(r,fd)</text>
</g>
<!-- request_req&#45;&gt;finish_pipe_r_fd -->
<g id="edge9" class="edge">
<title>request_req&#45;&gt;finish_pipe_r_fd</title>
<path fill="none" stroke="black" d="M423.81,-1120.21C416.82,-1106.31 406.63,-1086.03 398.45,-1069.75"/>
<polygon fill="black" stroke="black" points="401.71,-1068.44 394.09,-1061.08 395.45,-1071.59 401.71,-1068.44"/>
</g>
<!-- finish_pipe_r -->
<g id="node12" class="node">
<title>finish_pipe_r</title>
<ellipse fill="none" stroke="black" cx="378" cy="-969" rx="27" ry="18"/>
<text text-anchor="middle" x="378" y="-963.95" font-family="Times,serif" font-size="14.00">r</text>
</g>
<!-- finish_pipe_r_fd&#45;&gt;finish_pipe_r -->
<g id="edge10" class="edge">
<title>finish_pipe_r_fd&#45;&gt;finish_pipe_r</title>
<path fill="none" stroke="black" d="M383.31,-1023.81C382.55,-1016.14 381.64,-1006.89 380.78,-998.24"/>
<polygon fill="black" stroke="black" points="384.29,-998.14 379.83,-988.54 377.33,-998.83 384.29,-998.14"/>
</g>
<!-- finish_pipe_r&#45;&gt;get_blob_finish -->
<g id="edge11" class="edge">
<title>finish_pipe_r&#45;&gt;get_blob_finish</title>
<path fill="none" stroke="black" d="M377.27,-950.85C376.69,-937.49 375.89,-918.65 375.22,-903.03"/>
<polygon fill="black" stroke="black" points="378.73,-903.21 374.81,-893.37 371.74,-903.51 378.73,-903.21"/>
</g>
<!-- filter_tar_async_src -->
<g id="node31" class="node">
<title>filter_tar_async_src</title>
<ellipse fill="none" stroke="black" cx="429" cy="-379.5" rx="27" ry="18"/>
<text text-anchor="middle" x="429" y="-374.45" font-family="Times,serif" font-size="14.00">src</text>
</g>
<!-- write_tar_src&#45;&gt;filter_tar_async_src -->
<g id="edge26" class="edge">
<title>write_tar_src&#45;&gt;filter_tar_async_src</title>
<path fill="none" stroke="black" d="M667.08,-482.71C660.14,-476.18 651.26,-468.98 642,-464.5 572.21,-430.73 537.77,-469.4 471,-430 460.77,-423.96 451.85,-414.51 444.88,-405.47"/>
<polygon fill="black" stroke="black" points="447.92,-403.69 439.25,-397.6 442.22,-407.77 447.92,-403.69"/>
</g>
<!-- write_tar_filtered_result -->
<g id="node14" class="node">
<title>write_tar_filtered_result</title>
<ellipse fill="none" stroke="black" cx="717" cy="-268.5" rx="62.61" ry="18"/>
<text text-anchor="middle" x="717" y="-263.45" font-family="Times,serif" font-size="14.00">filtered_result</text>
</g>
<!-- write_tar_filtered_result2 -->
<g id="node22" class="node">
<title>write_tar_filtered_result2</title>
<ellipse fill="none" stroke="black" cx="825" cy="-180" rx="133.24" ry="18"/>
<text text-anchor="middle" x="825" y="-174.95" font-family="Times,serif" font-size="14.00">filtered_result (in try_join block)</text>
</g>
<!-- write_tar_filtered_result&#45;&gt;write_tar_filtered_result2 -->
<g id="edge19" class="edge">
<title>write_tar_filtered_result&#45;&gt;write_tar_filtered_result2</title>
<path fill="none" stroke="black" d="M720.57,-250.27C723.65,-239.22 729.13,-225.27 738.5,-216 744.2,-210.36 750.93,-205.59 758.08,-201.57"/>
<polygon fill="black" stroke="black" points="759.34,-204.86 766.68,-197.22 756.18,-198.61 759.34,-204.86"/>
<text text-anchor="middle" x="779.75" y="-219.2" font-family="Times,serif" font-size="14.00">tokio::try_join!</text>
</g>
<!-- write_tar_output_copier -->
<g id="node15" class="node">
<title>write_tar_output_copier</title>
<ellipse fill="none" stroke="black" cx="1023" cy="-268.5" rx="62.1" ry="18"/>
<text text-anchor="middle" x="1023" y="-263.45" font-family="Times,serif" font-size="14.00">output_copier</text>
</g>
<!-- write_tar_output_copier_await -->
<g id="node23" class="node">
<title>write_tar_output_copier_await</title>
<ellipse fill="none" stroke="black" cx="1012" cy="-107" rx="84.11" ry="18"/>
<text text-anchor="middle" x="1012" y="-101.95" font-family="Times,serif" font-size="14.00">output_copier.await</text>
</g>
<!-- write_tar_output_copier&#45;&gt;write_tar_output_copier_await -->
<g id="edge21" class="edge">
<title>write_tar_output_copier&#45;&gt;write_tar_output_copier_await</title>
<path fill="none" stroke="black" d="M1021.8,-250.13C1019.92,-222.8 1016.24,-169.5 1013.97,-136.5"/>
<polygon fill="black" stroke="black" points="1017.48,-136.6 1013.3,-126.86 1010.5,-137.08 1017.48,-136.6"/>
</g>
<!-- write_tar_ostree_commit_process -->
<g id="node16" class="node">
<title>write_tar_ostree_commit_process</title>
<ellipse fill="none" stroke="black" cx="866" cy="-498.5" rx="106.11" ry="18"/>
<text text-anchor="middle" x="866" y="-493.45" font-family="Times,serif" font-size="14.00">&lt;ostree commit process&gt;</text>
</g>
<!-- write_tar_child_stdin -->
<g id="node17" class="node">
<title>write_tar_child_stdin</title>
<ellipse fill="none" stroke="black" cx="706" cy="-379.5" rx="51.86" ry="18"/>
<text text-anchor="middle" x="706" y="-374.45" font-family="Times,serif" font-size="14.00">child_stdin</text>
</g>
<!-- write_tar_ostree_commit_process&#45;&gt;write_tar_child_stdin -->
<g id="edge13" class="edge">
<title>write_tar_ostree_commit_process&#45;&gt;write_tar_child_stdin</title>
<path fill="none" stroke="black" d="M839.95,-480.59C819.74,-467.28 791.19,-448.01 767,-430 755.83,-421.68 743.87,-412.13 733.52,-403.64"/>
<polygon fill="black" stroke="black" points="736.01,-401.16 726.07,-397.49 731.55,-406.56 736.01,-401.16"/>
</g>
<!-- write_tar_r -->
<g id="node19" class="node">
<title>write_tar_r</title>
<ellipse fill="none" stroke="black" cx="803" cy="-379.5" rx="27" ry="18"/>
<text text-anchor="middle" x="803" y="-374.45" font-family="Times,serif" font-size="14.00">r</text>
</g>
<!-- write_tar_ostree_commit_process&#45;&gt;write_tar_r -->
<g id="edge14" class="edge">
<title>write_tar_ostree_commit_process&#45;&gt;write_tar_r</title>
<path fill="none" stroke="black" d="M850.79,-480.31C844.59,-472.74 837.68,-463.53 832.5,-454.5 824.14,-439.92 817.07,-422.51 811.95,-408.24"/>
<polygon fill="black" stroke="black" points="815.34,-407.32 808.77,-399.01 808.72,-409.61 815.34,-407.32"/>
<text text-anchor="middle" x="854.25" y="-441.2" font-family="Times,serif" font-size="14.00">spawn()</text>
</g>
<!-- write_tar_output_copier_future_child_stdout -->
<g id="node20" class="node">
<title>write_tar_output_copier_future_child_stdout</title>
<ellipse fill="none" stroke="black" cx="904" cy="-379.5" rx="56.47" ry="18"/>
<text text-anchor="middle" x="904" y="-374.45" font-family="Times,serif" font-size="14.00">child_stdout</text>
</g>
<!-- write_tar_ostree_commit_process&#45;&gt;write_tar_output_copier_future_child_stdout -->
<g id="edge16" class="edge">
<title>write_tar_ostree_commit_process&#45;&gt;write_tar_output_copier_future_child_stdout</title>
<path fill="none" stroke="black" d="M871.61,-480.24C877.73,-461.4 887.61,-430.96 894.86,-408.65"/>
<polygon fill="black" stroke="black" points="898.14,-409.87 897.9,-399.27 891.48,-407.7 898.14,-409.87"/>
</g>
<!-- write_tar_output_copier_future_child_stderr -->
<g id="node21" class="node">
<title>write_tar_output_copier_future_child_stderr</title>
<ellipse fill="none" stroke="black" cx="1033" cy="-379.5" rx="54.93" ry="18"/>
<text text-anchor="middle" x="1033" y="-374.45" font-family="Times,serif" font-size="14.00">child_stderr</text>
</g>
<!-- write_tar_ostree_commit_process&#45;&gt;write_tar_output_copier_future_child_stderr -->
<g id="edge17" class="edge">
<title>write_tar_ostree_commit_process&#45;&gt;write_tar_output_copier_future_child_stderr</title>
<path fill="none" stroke="black" d="M892.63,-480.86C913.65,-467.52 943.58,-448.12 969,-430 980.68,-421.68 993.22,-412.12 1004.08,-403.64"/>
<polygon fill="black" stroke="black" points="1006.24,-406.39 1011.94,-397.45 1001.92,-400.89 1006.24,-406.39"/>
</g>
<!-- filter_tar_async_dest -->
<g id="node32" class="node">
<title>filter_tar_async_dest</title>
<ellipse fill="none" stroke="black" cx="507" cy="-379.5" rx="27" ry="18"/>
<text text-anchor="middle" x="507" y="-374.45" font-family="Times,serif" font-size="14.00">dest</text>
</g>
<!-- write_tar_child_stdin&#45;&gt;filter_tar_async_dest -->
<g id="edge27" class="edge">
<title>write_tar_child_stdin&#45;&gt;filter_tar_async_dest</title>
<path fill="none" stroke="black" d="M693.28,-397.3C680.28,-413.8 658.43,-437.27 633,-447.25 599.49,-460.4 583.73,-464.26 552,-447.25 536.28,-438.82 525.12,-422.21 517.84,-407.55"/>
<polygon fill="black" stroke="black" points="521.16,-406.4 513.84,-398.74 514.79,-409.29 521.16,-406.4"/>
</g>
<!-- write_tar_status_future_r -->
<g id="node18" class="node">
<title>write_tar_status_future_r</title>
<ellipse fill="none" stroke="black" cx="825" cy="-268.5" rx="27" ry="18"/>
<text text-anchor="middle" x="825" y="-263.45" font-family="Times,serif" font-size="14.00">r</text>
</g>
<!-- write_tar_status_future_r&#45;&gt;write_tar_filtered_result2 -->
<g id="edge18" class="edge">
<title>write_tar_status_future_r&#45;&gt;write_tar_filtered_result2</title>
<path fill="none" stroke="black" d="M825,-250.41C825,-238.76 825,-223.05 825,-209.52"/>
<polygon fill="black" stroke="black" points="828.5,-209.86 825,-199.86 821.5,-209.86 828.5,-209.86"/>
<text text-anchor="middle" x="866.25" y="-219.2" font-family="Times,serif" font-size="14.00">tokio::try_join!</text>
</g>
<!-- write_tar_r&#45;&gt;write_tar_status_future_r -->
<g id="edge15" class="edge">
<title>write_tar_r&#45;&gt;write_tar_status_future_r</title>
<path fill="none" stroke="black" d="M806.44,-361.47C809.87,-344.45 815.21,-317.99 819.29,-297.81"/>
<polygon fill="black" stroke="black" points="822.67,-298.75 821.21,-288.25 815.81,-297.36 822.67,-298.75"/>
</g>
<!-- write_tar_output_copier_future_child_stderr&#45;&gt;write_tar_output_copier -->
<g id="edge22" class="edge">
<title>write_tar_output_copier_future_child_stderr&#45;&gt;write_tar_output_copier</title>
<path fill="none" stroke="black" d="M1030.71,-353.5C1029.19,-336.99 1027.2,-315.29 1025.62,-298.09"/>
<polygon fill="black" stroke="black" points="1029.12,-297.92 1024.72,-288.28 1022.15,-298.56 1029.12,-297.92"/>
</g>
<!-- write_tar_filtered_result2&#45;&gt;write_tar_output_copier_await -->
<g id="edge20" class="edge">
<title>write_tar_filtered_result2&#45;&gt;write_tar_output_copier_await</title>
<path fill="none" stroke="black" d="M868.37,-162.53C896.24,-151.95 932.54,-138.17 961.68,-127.11"/>
<polygon fill="black" stroke="black" points="962.53,-130.52 970.64,-123.7 960.05,-123.98 962.53,-130.52"/>
</g>
<!-- write_tar_output_copier_await&#45;&gt;import_r -->
<g id="edge38" class="edge">
<title>write_tar_output_copier_await&#45;&gt;import_r</title>
<path fill="none" stroke="black" d="M1076.24,-549C980.21,-600.57 736.56,-607.73 641.66,-608.51"/>
<polygon fill="black" stroke="black" points="641.71,-605.01 631.73,-608.57 641.75,-612.01 641.71,-605.01"/>
</g>
<!-- tar_transformer_src -->
<g id="node24" class="node">
<title>tar_transformer_src</title>
<ellipse fill="none" stroke="black" cx="426" cy="-268.5" rx="27" ry="18"/>
<text text-anchor="middle" x="426" y="-263.45" font-family="Times,serif" font-size="14.00">src</text>
</g>
<!-- tar_transformer_src2 -->
<g id="node25" class="node">
<title>tar_transformer_src2</title>
<ellipse fill="none" stroke="black" cx="361" cy="-180" rx="94.86" ry="18"/>
<text text-anchor="middle" x="361" y="-174.95" font-family="Times,serif" font-size="14.00">src: SyncIoBridge(src)</text>
</g>
<!-- tar_transformer_src&#45;&gt;tar_transformer_src2 -->
<g id="edge23" class="edge">
<title>tar_transformer_src&#45;&gt;tar_transformer_src2</title>
<path fill="none" stroke="black" d="M409.26,-254.3C402.15,-248.16 394.12,-240.47 388,-232.5 382.36,-225.15 377.29,-216.45 373.11,-208.31"/>
<polygon fill="black" stroke="black" points="376.33,-206.93 368.82,-199.46 370.03,-209.99 376.33,-206.93"/>
</g>
<!-- filter_tar_async_r -->
<g id="node35" class="node">
<title>filter_tar_async_r</title>
<ellipse fill="none" stroke="black" cx="510" cy="-180" rx="27" ry="18"/>
<text text-anchor="middle" x="510" y="-174.95" font-family="Times,serif" font-size="14.00">r</text>
</g>
<!-- tar_transformer_src&#45;&gt;filter_tar_async_r -->
<g id="edge32" class="edge">
<title>tar_transformer_src&#45;&gt;filter_tar_async_r</title>
<path fill="none" stroke="black" d="M464,-201.99C468.32,-199.69 472.92,-197.41 477.48,-195.23"/>
<polygon fill="black" stroke="black" points="478.75,-198.5 486.36,-191.13 475.82,-192.15 478.75,-198.5"/>
<text text-anchor="middle" x="473.62" y="-219.2" font-family="Times,serif" font-size="14.00">tokio::join!</text>
</g>
<!-- tar_transformer_src3 -->
<g id="node26" class="node">
<title>tar_transformer_src3</title>
<ellipse fill="none" stroke="black" cx="361" cy="-107" rx="95.37" ry="18"/>
<text text-anchor="middle" x="361" y="-101.95" font-family="Times,serif" font-size="14.00">src: decompressor(src)</text>
</g>
<!-- tar_transformer_src2&#45;&gt;tar_transformer_src3 -->
<g id="edge24" class="edge">
<title>tar_transformer_src2&#45;&gt;tar_transformer_src3</title>
<path fill="none" stroke="black" d="M361,-161.81C361,-154.23 361,-145.1 361,-136.54"/>
<polygon fill="black" stroke="black" points="364.5,-136.54 361,-126.54 357.5,-136.54 364.5,-136.54"/>
</g>
<!-- tar_transformer_tx_buf -->
<g id="node27" class="node">
<title>tar_transformer_tx_buf</title>
<ellipse fill="none" stroke="black" cx="136" cy="-268.5" rx="34.97" ry="18"/>
<text text-anchor="middle" x="136" y="-263.45" font-family="Times,serif" font-size="14.00">tx_buf</text>
</g>
<!-- tar_transformer_dest -->
<g id="node28" class="node">
<title>tar_transformer_dest</title>
<ellipse fill="none" stroke="black" cx="136" cy="-180" rx="112.26" ry="18"/>
<text text-anchor="middle" x="136" y="-174.95" font-family="Times,serif" font-size="14.00">dest: SyncIoBridge(tx_buf)</text>
</g>
<!-- tar_transformer_tx_buf&#45;&gt;tar_transformer_dest -->
<g id="edge25" class="edge">
<title>tar_transformer_tx_buf&#45;&gt;tar_transformer_dest</title>
<path fill="none" stroke="black" d="M136,-250.41C136,-238.76 136,-223.05 136,-209.52"/>
<polygon fill="black" stroke="black" points="139.5,-209.86 136,-199.86 132.5,-209.86 139.5,-209.86"/>
</g>
<!-- filter_tar_async_copier_future_rx_buf -->
<g id="node29" class="node">
<title>filter_tar_async_copier_future_rx_buf</title>
<ellipse fill="none" stroke="black" cx="587" cy="-268.5" rx="35.49" ry="18"/>
<text text-anchor="middle" x="587" y="-263.45" font-family="Times,serif" font-size="14.00">rx_buf</text>
</g>
<!-- filter_tar_async_copier_future_dest -->
<g id="node30" class="node">
<title>filter_tar_async_copier_future_dest</title>
<ellipse fill="none" stroke="black" cx="507" cy="-268.5" rx="27" ry="18"/>
<text text-anchor="middle" x="507" y="-263.45" font-family="Times,serif" font-size="14.00">dest</text>
</g>
<!-- filter_tar_async_copier_future_dest&#45;&gt;filter_tar_async_r -->
<g id="edge33" class="edge">
<title>filter_tar_async_copier_future_dest&#45;&gt;filter_tar_async_r</title>
<path fill="none" stroke="black" d="M507.87,-242.5C508.22,-232.19 508.64,-220.17 509.01,-209.52"/>
<polygon fill="black" stroke="black" points="512.5,-209.98 509.35,-199.86 505.5,-209.74 512.5,-209.98"/>
<text text-anchor="middle" x="539.14" y="-219.2" font-family="Times,serif" font-size="14.00">tokio::join!</text>
</g>
<!-- filter_tar_async_src&#45;&gt;tar_transformer_src -->
<g id="edge28" class="edge">
<title>filter_tar_async_src&#45;&gt;tar_transformer_src</title>
<path fill="none" stroke="black" d="M428.53,-361.47C428.07,-344.53 427.34,-318.23 426.79,-298.09"/>
<polygon fill="black" stroke="black" points="430.29,-298.18 426.52,-288.28 423.29,-298.38 430.29,-298.18"/>
</g>
<!-- filter_tar_async_dest&#45;&gt;filter_tar_async_copier_future_dest -->
<g id="edge31" class="edge">
<title>filter_tar_async_dest&#45;&gt;filter_tar_async_copier_future_dest</title>
<path fill="none" stroke="black" d="M507,-361.47C507,-344.53 507,-318.23 507,-298.09"/>
<polygon fill="black" stroke="black" points="510.5,-298.28 507,-288.28 503.5,-298.28 510.5,-298.28"/>
<text text-anchor="middle" x="523.5" y="-330.2" font-family="Times,serif" font-size="14.00">&amp;mut</text>
</g>
<!-- filter_tar_async_tx_buf -->
<g id="node33" class="node">
<title>filter_tar_async_tx_buf</title>
<ellipse fill="none" stroke="black" cx="136" cy="-379.5" rx="34.97" ry="18"/>
<text text-anchor="middle" x="136" y="-374.45" font-family="Times,serif" font-size="14.00">tx_buf</text>
</g>
<!-- filter_tar_async_tx_buf&#45;&gt;tar_transformer_tx_buf -->
<g id="edge29" class="edge">
<title>filter_tar_async_tx_buf&#45;&gt;tar_transformer_tx_buf</title>
<path fill="none" stroke="black" d="M136,-361.47C136,-344.53 136,-318.23 136,-298.09"/>
<polygon fill="black" stroke="black" points="139.5,-298.28 136,-288.28 132.5,-298.28 139.5,-298.28"/>
</g>
<!-- filter_tar_async_rx_buf -->
<g id="node34" class="node">
<title>filter_tar_async_rx_buf</title>
<ellipse fill="none" stroke="black" cx="587" cy="-379.5" rx="35.49" ry="18"/>
<text text-anchor="middle" x="587" y="-374.45" font-family="Times,serif" font-size="14.00">rx_buf</text>
</g>
<!-- filter_tar_async_rx_buf&#45;&gt;filter_tar_async_copier_future_rx_buf -->
<g id="edge30" class="edge">
<title>filter_tar_async_rx_buf&#45;&gt;filter_tar_async_copier_future_rx_buf</title>
<path fill="none" stroke="black" d="M587,-361.47C587,-344.53 587,-318.23 587,-298.09"/>
<polygon fill="black" stroke="black" points="590.5,-298.28 587,-288.28 583.5,-298.28 590.5,-298.28"/>
<text text-anchor="middle" x="603.5" y="-330.2" font-family="Times,serif" font-size="14.00">&amp;mut</text>
</g>
<!-- filter_tar_async_r2 -->
<g id="node36" class="node">
<title>filter_tar_async_r2</title>
<ellipse fill="none" stroke="black" cx="587" cy="-107" rx="27" ry="18"/>
<text text-anchor="middle" x="587" y="-101.95" font-family="Times,serif" font-size="14.00">r</text>
</g>
<!-- filter_tar_async_r&#45;&gt;filter_tar_async_r2 -->
<g id="edge34" class="edge">
<title>filter_tar_async_r&#45;&gt;filter_tar_async_r2</title>
<path fill="none" stroke="black" d="M525.21,-164.97C536.11,-154.92 550.99,-141.2 563.42,-129.74"/>
<polygon fill="black" stroke="black" points="565.46,-132.62 570.44,-123.27 560.72,-127.47 565.46,-132.62"/>
</g>
<!-- filter_tar_async_src2 -->
<g id="node37" class="node">
<title>filter_tar_async_src2</title>
<ellipse fill="none" stroke="black" cx="510" cy="-107" rx="27" ry="18"/>
<text text-anchor="middle" x="510" y="-101.95" font-family="Times,serif" font-size="14.00">src</text>
</g>
<!-- filter_tar_async_r&#45;&gt;filter_tar_async_src2 -->
<g id="edge35" class="edge">
<title>filter_tar_async_r&#45;&gt;filter_tar_async_src2</title>
<path fill="none" stroke="black" d="M510,-161.81C510,-154.23 510,-145.1 510,-136.54"/>
<polygon fill="black" stroke="black" points="513.5,-136.54 510,-126.54 506.5,-136.54 513.5,-136.54"/>
</g>
<!-- filter_tar_async_r2&#45;&gt;write_tar_filtered_result -->
<g id="edge36" class="edge">
<title>filter_tar_async_r2&#45;&gt;write_tar_filtered_result</title>
<path fill="none" stroke="black" d="M599.34,-123.14C621.62,-150.48 668.82,-208.38 696.18,-241.95"/>
<polygon fill="black" stroke="black" points="693.35,-244.02 702.38,-249.56 698.77,-239.6 693.35,-244.02"/>
</g>
<!-- filter_tar_async_drop_src -->
<g id="node38" class="node">
<title>filter_tar_async_drop_src</title>
<ellipse fill="none" stroke="black" cx="510" cy="-34" rx="44.7" ry="18"/>
<text text-anchor="middle" x="510" y="-28.95" font-family="Times,serif" font-size="14.00">drop(src)</text>
</g>
<!-- filter_tar_async_src2&#45;&gt;filter_tar_async_drop_src -->
<g id="edge37" class="edge">
<title>filter_tar_async_src2&#45;&gt;filter_tar_async_drop_src</title>
<path fill="none" stroke="black" d="M510,-88.81C510,-81.23 510,-72.1 510,-63.54"/>
<polygon fill="black" stroke="black" points="513.5,-63.54 510,-53.54 506.5,-63.54 513.5,-63.54"/>
</g>
</g>
</svg>
